<svg xmlns="http://www.w3.org/2000/svg" viewBox="0 0 188 52" height="34" shape-rendering="crispEdges" role="img" aria-label="SKILLS"><g><rect x="8" y="12" width="4" height="4" fill="#ff6e9c"/><rect x="8" y="16" width="4" height="4" fill="#ff6e9c"/><rect x="8" y="20" width="4" height="4" fill="#ff6e9c"/><rect x="8" y="24" width="4" height="4" fill="#ff6e9c"/><rect x="8" y="28" width="4" height="4" fill="#ff6e9c"/><rect x="12" y="16" width="4" height="4" fill="#ff6e9c"/><rect x="12" y="20" width="4" height="4" fill="#ff6e9c"/><rect x="12" y="24" width="4" height="4" fill="#ff6e9c"/><rect x="16" y="20" width="4" height="4" fill="#ff6e9c"/><animateTransform attributeName="transform" type="translate" values="0,0;2,0;0,0" dur="1.6s" repeatCount="indefinite"/></g><rect x="33" y="9" width="4" height="4" fill="#241a38"/><rect x="37" y="9" width="4" height="4" fill="#241a38"/><rect x="41" y="9" width="4" height="4" fill="#241a38"/><rect x="45" y="9" width="4" height="4" fill="#241a38"/><rect x="29" y="13" width="4" height="4" fill="#241a38"/><rect x="29" y="17" width="4" height="4" fill="#241a38"/><rect x="33" y="21" width="4" height="4" fill="#241a38"/><rect x="37" y="21" width="4" height="4" fill="#241a38"/><rect x="41" y="21" width="4" height="4" fill="#241a38"/><rect x="45" y="25" width="4" height="4" fill="#241a38"/><rect x="45" y="29" width="4" height="4" fill="#241a38"/><rect x="29" y="33" width="4" height="4" fill="#241a38"/><rect x="33" y="33" width="4" height="4" fill="#241a38"/><rect x="37" y="33" width="4" height="4" fill="#241a38"/><rect x="41" y="33" width="4" height="4" fill="#241a38"/><rect x="32" y="8" width="4" height="4" fill="#c0caf5"/><rect x="36" y="8" width="4" height="4" fill="#c0caf5"/><rect x="40" y="8" width="4" height="4" fill="#c0caf5"/><rect x="44" y="8" width="4" height="4" fill="#c0caf5"/><rect x="28" y="12" width="4" height="4" fill="#c0caf5"/><rect x="28" y="16" width="4" height="4" fill="#c0caf5"/><rect x="32" y="20" width="4" height="4" fill="#c0caf5"/><rect x="36" y="20" width="4" height="4" fill="#c0caf5"/><rect x="40" y="20" width="4" height="4" fill="#c0caf5"/><rect x="44" y="24" width="4" height="4" fill="#c0caf5"/><rect x="44" y="28" width="4" height="4" fill="#c0caf5"/><rect x="28" y="32" width="4" height="4" fill="#c0caf5"/><rect x="32" y="32" width="4" height="4" fill="#c0caf5"/><rect x="36" y="32" width="4" height="4" fill="#c0caf5"/><rect x="40" y="32" width="4" height="4" fill="#c0caf5"/><rect x="53" y="9" width="4" height="4" fill="#241a38"/><rect x="69" y="9" width="4" height="4" fill="#241a38"/><rect x="53" y="13" width="4" height="4" fill="#241a38"/><rect x="65" y="13" width="4" height="4" fill="#241a38"/><rect x="53" y="17" width="4" height="4" fill="#241a38"/><rect x="61" y="17" width="4" height="4" fill="#241a38"/><rect x="53" y="21" width="4" height="4" fill="#241a38"/><rect x="57" y="21" width="4" height="4" fill="#241a38"/><rect x="53" y="25" width="4" height="4" fill="#241a38"/><rect x="61" y="25" width="4" height="4" fill="#241a38"/><rect x="53" y="29" width="4" height="4" fill="#241a38"/><rect x="65" y="29" width="4" height="4" fill="#241a38"/><rect x="53" y="33" width="4" height="4" fill="#241a38"/><rect x="69" y="33" width="4" height="4" fill="#241a38"/><rect x="52" y="8" width="4" height="4" fill="#c0caf5"/><rect x="68" y="8" width="4" height="4" fill="#c0caf5"/><rect x="52" y="12" width="4" height="4" fill="#c0caf5"/><rect x="64" y="12" width="4" height="4" fill="#c0caf5"/><rect x="52" y="16" width="4" height="4" fill="#c0caf5"/><rect x="60" y="16" width="4" height="4" fill="#c0caf5"/><rect x="52" y="20" width="4" height="4" fill="#c0caf5"/><rect x="56" y="20" width="4" height="4" fill="#c0caf5"/><rect x="52" y="24" width="4" height="4" fill="#c0caf5"/><rect x="60" y="24" width="4" height="4" fill="#c0caf5"/><rect x="52" y="28" width="4" height="4" fill="#c0caf5"/><rect x="64" y="28" width="4" height="4" fill="#c0caf5"/><rect x="52" y="32" width="4" height="4" fill="#c0caf5"/><rect x="68" y="32" width="4" height="4" fill="#c0caf5"/><rect x="77" y="9" width="4" height="4" fill="#241a38"/><rect x="81" y="9" width="4" height="4" fill="#241a38"/><rect x="85" y="9" width="4" height="4" fill="#241a38"/><rect x="89" y="9" width="4" height="4" fill="#241a38"/><rect x="93" y="9" width="4" height="4" fill="#241a38"/><rect x="85" y="13" width="4" height="4" fill="#241a38"/><rect x="85" y="17" width="4" height="4" fill="#241a38"/><rect x="85" y="21" width="4" height="4" fill="#241a38"/><rect x="85" y="25" width="4" height="4" fill="#241a38"/><rect x="85" y="29" width="4" height="4" fill="#241a38"/><rect x="77" y="33" width="4" height="4" fill="#241a38"/><rect x="81" y="33" width="4" height="4" fill="#241a38"/><rect x="85" y="33" width="4" height="4" fill="#241a38"/><rect x="89" y="33" width="4" height="4" fill="#241a38"/><rect x="93" y="33" width="4" height="4" fill="#241a38"/><rect x="76" y="8" width="4" height="4" fill="#c0caf5"/><rect x="80" y="8" width="4" height="4" fill="#c0caf5"/><rect x="84" y="8" width="4" height="4" fill="#c0caf5"/><rect x="88" y="8" width="4" height="4" fill="#c0caf5"/><rect x="92" y="8" width="4" height="4" fill="#c0caf5"/><rect x="84" y="12" width="4" height="4" fill="#c0caf5"/><rect x="84" y="16" width="4" height="4" fill="#c0caf5"/><rect x="84" y="20" width="4" height="4" fill="#c0caf5"/><rect x="84" y="24" width="4" height="4" fill="#c0caf5"/><rect x="84" y="28" width="4" height="4" fill="#c0caf5"/><rect x="76" y="32" width="4" height="4" fill="#c0caf5"/><rect x="80" y="32" width="4" height="4" fill="#c0caf5"/><rect x="84" y="32" width="4" height="4" fill="#c0caf5"/><rect x="88" y="32" width="4" height="4" fill="#c0caf5"/><rect x="92" y="32" width="4" height="4" fill="#c0caf5"/><rect x="101" y="9" width="4" height="4" fill="#241a38"/><rect x="101" y="13" width="4" height="4" fill="#241a38"/><rect x="101" y="17" width="4" height="4" fill="#241a38"/><rect x="101" y="21" width="4" height="4" fill="#241a38"/><rect x="101" y="25" width="4" height="4" fill="#241a38"/><rect x="101" y="29" width="4" height="4" fill="#241a38"/><rect x="101" y="33" width="4" height="4" fill="#241a38"/><rect x="105" y="33" width="4" height="4" fill="#241a38"/><rect x="109" y="33" width="4" height="4" fill="#241a38"/><rect x="113" y="33" width="4" height="4" fill="#241a38"/><rect x="117" y="33" width="4" height="4" fill="#241a38"/><rect x="100" y="8" width="4" height="4" fill="#c0caf5"/><rect x="100" y="12" width="4" height="4" fill="#c0caf5"/><rect x="100" y="16" width="4" height="4" fill="#c0caf5"/><rect x="100" y="20" width="4" height="4" fill="#c0caf5"/><rect x="100" y="24" width="4" height="4" fill="#c0caf5"/><rect x="100" y="28" width="4" height="4" fill="#c0caf5"/><rect x="100" y="32" width="4" height="4" fill="#c0caf5"/><rect x="104" y="32" width="4" height="4" fill="#c0caf5"/><rect x="108" y="32" width="4" height="4" fill="#c0caf5"/><rect x="112" y="32" width="4" height="4" fill="#c0caf5"/><rect x="116" y="32" width="4" height="4" fill="#c0caf5"/><rect x="125" y="9" width="4" height="4" fill="#241a38"/><rect x="125" y="13" width="4" height="4" fill="#241a38"/><rect x="125" y="17" width="4" height="4" fill="#241a38"/><rect x="125" y="21" width="4" height="4" fill="#241a38"/><rect x="125" y="25" width="4" height="4" fill="#241a38"/><rect x="125" y="29" width="4" height="4" fill="#241a38"/><rect x="125" y="33" width="4" height="4" fill="#241a38"/><rect x="129" y="33" width="4" height="4" fill="#241a38"/><rect x="133" y="33" width="4" height="4" fill="#241a38"/><rect x="137" y="33" width="4" height="4" fill="#241a38"/><rect x="141" y="33" width="4" height="4" fill="#241a38"/><rect x="124" y="8" width="4" height="4" fill="#c0caf5"/><rect x="124" y="12" width="4" height="4" fill="#c0caf5"/><rect x="124" y="16" width="4" height="4" fill="#c0caf5"/><rect x="124" y="20" width="4" height="4" fill="#c0caf5"/><rect x="124" y="24" width="4" height="4" fill="#c0caf5"/><rect x="124" y="28" width="4" height="4" fill="#c0caf5"/><rect x="124" y="32" width="4" height="4" fill="#c0caf5"/><rect x="128" y="32" width="4" height="4" fill="#c0caf5"/><rect x="132" y="32" width="4" height="4" fill="#c0caf5"/><rect x="136" y="32" width="4" height="4" fill="#c0caf5"/><rect x="140" y="32" width="4" height="4" fill="#c0caf5"/><rect x="153" y="9" width="4" height="4" fill="#241a38"/><rect x="157" y="9" width="4" height="4" fill="#241a38"/><rect x="161" y="9" width="4" height="4" fill="#241a38"/><rect x="165" y="9" width="4" height="4" fill="#241a38"/><rect x="149" y="13" width="4" height="4" fill="#241a38"/><rect x="149" y="17" width="4" height="4" fill="#241a38"/><rect x="153" y="21" width="4" height="4" fill="#241a38"/><rect x="157" y="21" width="4" height="4" fill="#241a38"/><rect x="161" y="21" width="4" height="4" fill="#241a38"/><rect x="165" y="25" width="4" height="4" fill="#241a38"/><rect x="165" y="29" width="4" height="4" fill="#241a38"/><rect x="149" y="33" width="4" height="4" fill="#241a38"/><rect x="153" y="33" width="4" height="4" fill="#241a38"/><rect x="157" y="33" width="4" height="4" fill="#241a38"/><rect x="161" y="33" width="4" height="4" fill="#241a38"/><rect x="152" y="8" width="4" height="4" fill="#c0caf5"/><rect x="156" y="8" width="4" height="4" fill="#c0caf5"/><rect x="160" y="8" width="4" height="4" fill="#c0caf5"/><rect x="164" y="8" width="4" height="4" fill="#c0caf5"/><rect x="148" y="12" width="4" height="4" fill="#c0caf5"/><rect x="148" y="16" width="4" height="4" fill="#c0caf5"/><rect x="152" y="20" width="4" height="4" fill="#c0caf5"/><rect x="156" y="20" width="4" height="4" fill="#c0caf5"/><rect x="160" y="20" width="4" height="4" fill="#c0caf5"/><rect x="164" y="24" width="4" height="4" fill="#c0caf5"/><rect x="164" y="28" width="4" height="4" fill="#c0caf5"/><rect x="148" y="32" width="4" height="4" fill="#c0caf5"/><rect x="152" y="32" width="4" height="4" fill="#c0caf5"/><rect x="156" y="32" width="4" height="4" fill="#c0caf5"/><rect x="160" y="32" width="4" height="4" fill="#c0caf5"/><rect x="172" y="8" width="4" height="28" fill="#ffd479"><animate attributeName="opacity" values="1;1;0;0" dur="1s" repeatCount="indefinite"/></rect><rect x="8" y="40" width="172" height="2" fill="#3b2a55"/><rect x="0" y="40" width="40" height="2" fill="#9fe7ff" opacity="0.9"><animate attributeName="x" values="8;140;8" dur="3.5s" repeatCount="indefinite"/></rect></svg>