<svg xmlns="http://www.w3.org/2000/svg" viewBox="0 0 320 80" width="100%" preserveAspectRatio="xMidYMid meet" shape-rendering="crispEdges" role="img" aria-label="pixel night sky banner"><rect x="0" y="0" width="320" height="80" fill="#1a1b26"/><rect x="0" y="58" width="320" height="22" fill="#1f2335"/><rect x="59" y="4" width="1" height="1" fill="#7dcfff"><animate attributeName="opacity" values="0.24;1;0.24" dur="2.0s" begin="2.21s" repeatCount="indefinite"/></rect><rect x="281" y="8" width="2" height="2" fill="#c0caf5"><animate attributeName="opacity" values="0.2;1;0.2" dur="1.65s" begin="0.66s" repeatCount="indefinite"/></rect><rect x="15" y="38" width="1" height="1" fill="#e0af68"><animate attributeName="opacity" values="0.26;1;0.26" dur="2.0s" begin="1.77s" repeatCount="indefinite"/></rect><rect x="5" y="13" width="2" height="2" fill="#bb9af7"><animate attributeName="opacity" values="0.25;1;0.25" dur="2.1s" begin="0.65s" repeatCount="indefinite"/></rect><rect x="54" y="8" width="2" height="2" fill="#c0caf5"><animate attributeName="opacity" values="0.15;1;0.15" dur="2.25s" begin="1.03s" repeatCount="indefinite"/></rect><rect x="24" y="49" width="2" height="2" fill="#c0caf5"><animate attributeName="opacity" values="0.21;1;0.21" dur="3.35s" begin="1.14s" repeatCount="indefinite"/></rect><rect x="187" y="39" width="1" height="1" fill="#c0caf5"><animate attributeName="opacity" values="0.16;1;0.16" dur="1.68s" begin="0.68s" repeatCount="indefinite"/></rect><rect x="42" y="17" width="1" height="1" fill="#e0af68"><animate attributeName="opacity" values="0.17;1;0.17" dur="2.1s" begin="1.91s" repeatCount="indefinite"/></rect><rect x="191" y="25" width="1" height="1" fill="#bb9af7"><animate attributeName="opacity" values="0.11;1;0.11" dur="2.86s" begin="2.05s" repeatCount="indefinite"/></rect><rect x="89" y="37" width="1" height="1" fill="#7dcfff"><animate attributeName="opacity" values="0.29;1;0.29" dur="2.43s" begin="0.81s" repeatCount="indefinite"/></rect><rect x="287" y="17" width="1" height="1" fill="#c0caf5"><animate attributeName="opacity" values="0.16;1;0.16" dur="2.01s" begin="0.1s" repeatCount="indefinite"/></rect><rect x="139" y="7" width="1" height="1" fill="#bb9af7"><animate attributeName="opacity" values="0.28;1;0.28" dur="1.98s" begin="1.5s" repeatCount="indefinite"/></rect><rect x="236" y="12" width="1" height="1" fill="#7dcfff"><animate attributeName="opacity" values="0.15;1;0.15" dur="2.04s" begin="1.68s" repeatCount="indefinite"/></rect><rect x="301" y="30" width="2" height="2" fill="#bb9af7"><animate attributeName="opacity" values="0.2;1;0.2" dur="1.99s" begin="2.99s" repeatCount="indefinite"/></rect><rect x="48" y="6" width="1" height="1" fill="#7dcfff"><animate attributeName="opacity" values="0.18;1;0.18" dur="2.73s" begin="2.38s" repeatCount="indefinite"/></rect><rect x="34" y="27" width="2" height="2" fill="#e0af68"><animate attributeName="opacity" values="0.27;1;0.27" dur="2.55s" begin="2.91s" repeatCount="indefinite"/></rect><rect x="7" y="46" width="1" height="1" fill="#bb9af7"><animate attributeName="opacity" values="0.16;1;0.16" dur="2.98s" begin="1.02s" repeatCount="indefinite"/></rect><rect x="82" y="32" width="1" height="1" fill="#bb9af7"><animate attributeName="opacity" values="0.2;1;0.2" dur="3.35s" begin="2.29s" repeatCount="indefinite"/></rect><rect x="56" y="43" width="1" height="1" fill="#7dcfff"><animate attributeName="opacity" values="0.21;1;0.21" dur="1.88s" begin="2.29s" repeatCount="indefinite"/></rect><rect x="273" y="3" width="1" height="1" fill="#e0af68"><animate attributeName="opacity" values="0.28;1;0.28" dur="1.64s" begin="2.79s" repeatCount="indefinite"/></rect><rect x="159" y="18" width="1" height="1" fill="#7dcfff"><animate attributeName="opacity" values="0.12;1;0.12" dur="3.18s" begin="2.84s" repeatCount="indefinite"/></rect><rect x="250" y="7" width="1" height="1" fill="#7dcfff"><animate attributeName="opacity" values="0.13;1;0.13" dur="2.79s" begin="2.84s" repeatCount="indefinite"/></rect><rect x="272" y="41" width="2" height="2" fill="#7dcfff"><animate attributeName="opacity" values="0.24;1;0.24" dur="3.27s" begin="2.27s" repeatCount="indefinite"/></rect><rect x="161" y="28" width="1" height="1" fill="#e0af68"><animate attributeName="opacity" values="0.15;1;0.15" dur="3.22s" begin="1.35s" repeatCount="indefinite"/></rect><rect x="34" y="24" width="1" height="1" fill="#7dcfff"><animate attributeName="opacity" values="0.24;1;0.24" dur="2.66s" begin="0.02s" repeatCount="indefinite"/></rect><rect x="32" y="17" width="1" height="1" fill="#c0caf5"><animate attributeName="opacity" values="0.15;1;0.15" dur="3.15s" begin="0.21s" repeatCount="indefinite"/></rect><rect x="250" y="16" width="1" height="1" fill="#e0af68"><animate attributeName="opacity" values="0.18;1;0.18" dur="2.04s" begin="1.42s" repeatCount="indefinite"/></rect><rect x="50" y="9" width="2" height="2" fill="#bb9af7"><animate attributeName="opacity" values="0.25;1;0.25" dur="2.36s" begin="1.4s" repeatCount="indefinite"/></rect><rect x="52" y="6" width="2" height="2" fill="#bb9af7"><animate attributeName="opacity" values="0.14;1;0.14" dur="3.04s" begin="0.33s" repeatCount="indefinite"/></rect><rect x="276" y="31" width="1" height="1" fill="#e0af68"><animate attributeName="opacity" values="0.27;1;0.27" dur="1.93s" begin="1.39s" repeatCount="indefinite"/></rect><rect x="40" y="31" width="1" height="1" fill="#c0caf5"><animate attributeName="opacity" values="0.1;1;0.1" dur="2.77s" begin="1.62s" repeatCount="indefinite"/></rect><rect x="49" y="18" width="1" height="1" fill="#e0af68"><animate attributeName="opacity" values="0.18;1;0.18" dur="2.47s" begin="0.64s" repeatCount="indefinite"/></rect><rect x="32" y="13" width="2" height="2" fill="#c0caf5"><animate attributeName="opacity" values="0.26;1;0.26" dur="3.37s" begin="0.8s" repeatCount="indefinite"/></rect><rect x="234" y="21" width="2" height="2" fill="#e0af68"><animate attributeName="opacity" values="0.29;1;0.29" dur="1.88s" begin="0.89s" repeatCount="indefinite"/></rect><rect x="298" y="50" width="1" height="1" fill="#bb9af7"><animate attributeName="opacity" values="0.2;1;0.2" dur="1.7s" begin="1.75s" repeatCount="indefinite"/></rect><rect x="273" y="13" width="1" height="1" fill="#c0caf5"><animate attributeName="opacity" values="0.11;1;0.11" dur="3.13s" begin="0.21s" repeatCount="indefinite"/></rect><rect x="122" y="28" width="1" height="1" fill="#7dcfff"><animate attributeName="opacity" values="0.12;1;0.12" dur="2.64s" begin="0.12s" repeatCount="indefinite"/></rect><rect x="300" y="39" width="1" height="1" fill="#bb9af7"><animate attributeName="opacity" values="0.15;1;0.15" dur="1.97s" begin="2.15s" repeatCount="indefinite"/></rect><rect x="204" y="11" width="1" height="1" fill="#e0af68"><animate attributeName="opacity" values="0.11;1;0.11" dur="2.17s" begin="2.26s" repeatCount="indefinite"/></rect><rect x="236" y="42" width="1" height="1" fill="#c0caf5"><animate attributeName="opacity" values="0.13;1;0.13" dur="2.57s" begin="1.52s" repeatCount="indefinite"/></rect><rect x="180" y="7" width="1" height="1" fill="#bb9af7"><animate attributeName="opacity" values="0.21;1;0.21" dur="2.11s" begin="1.31s" repeatCount="indefinite"/></rect><rect x="156" y="42" width="1" height="1" fill="#bb9af7"><animate attributeName="opacity" values="0.28;1;0.28" dur="3.28s" begin="0.31s" repeatCount="indefinite"/></rect><rect x="137" y="10" width="1" height="1" fill="#7dcfff"><animate attributeName="opacity" values="0.24;1;0.24" dur="2.09s" begin="1.81s" repeatCount="indefinite"/></rect><rect x="106" y="46" width="1" height="1" fill="#e0af68"><animate attributeName="opacity" values="0.11;1;0.11" dur="2.05s" begin="2.72s" repeatCount="indefinite"/></rect><rect x="218" y="20" width="1" height="1" fill="#c0caf5"><animate attributeName="opacity" values="0.3;1;0.3" dur="2.2s" begin="0.39s" repeatCount="indefinite"/></rect><rect x="84" y="50" width="2" height="2" fill="#e0af68"><animate attributeName="opacity" values="0.29;1;0.29" dur="2.61s" begin="0.34s" repeatCount="indefinite"/></rect><rect x="288" y="12" width="4" height="1" fill="#e0af68"/><rect x="287" y="13" width="2" height="1" fill="#e0af68"/><rect x="291" y="13" width="2" height="1" fill="#e0af68"/><rect x="286" y="14" width="2" height="1" fill="#e0af68"/><rect x="292" y="14" width="2" height="1" fill="#e0af68"/><rect x="286" y="15" width="2" height="2" fill="#e0af68"/><rect x="286" y="17" width="2" height="1" fill="#e0af68"/><rect x="292" y="17" width="2" height="1" fill="#e0af68"/><rect x="287" y="18" width="2" height="1" fill="#e0af68"/><rect x="291" y="18" width="2" height="1" fill="#e0af68"/><rect x="288" y="19" width="4" height="1" fill="#e0af68"/><rect x="285" y="11" width="10" height="10" fill="#e0af68" opacity="0.0"><animate attributeName="opacity" values="0;0.18;0" dur="4s" repeatCount="indefinite"/></rect><rect x="-2" y="33" width="12" height="47" fill="#24283b"/><rect x="1" y="41" width="2" height="2" fill="#e0af68"><animate attributeName="opacity" values="1;0.25;1" dur="2.92s" begin="3.6s" repeatCount="indefinite"/></rect><rect x="1" y="51" width="2" height="2" fill="#e0af68"><animate attributeName="opacity" values="1;0.25;1" dur="2.31s" begin="3.12s" repeatCount="indefinite"/></rect><rect x="10" y="31" width="16" height="49" fill="#414868"/><rect x="13" y="34" width="2" height="2" fill="#1f2335"/><rect x="13" y="39" width="2" height="2" fill="#1f2335"/><rect x="18" y="44" width="2" height="2" fill="#1f2335"/><rect x="13" y="49" width="2" height="2" fill="#1f2335"/><rect x="23" y="49" width="2" height="2" fill="#e0af68"><animate attributeName="opacity" values="1;0.25;1" dur="2.58s" begin="1.31s" repeatCount="indefinite"/></rect><rect x="23" y="54" width="2" height="2" fill="#1f2335"/><rect x="26" y="40" width="18" height="40" fill="#24283b"/><rect x="29" y="43" width="2" height="2" fill="#1f2335"/><rect x="34" y="43" width="2" height="2" fill="#e0af68"><animate attributeName="opacity" values="1;0.25;1" dur="3.3s" begin="2.91s" repeatCount="indefinite"/></rect><rect x="39" y="43" width="2" height="2" fill="#1f2335"/><rect x="34" y="48" width="2" height="2" fill="#1f2335"/><rect x="44" y="37" width="14" height="43" fill="#24283b"/><rect x="47" y="50" width="2" height="2" fill="#1f2335"/><rect x="52" y="50" width="2" height="2" fill="#1f2335"/><rect x="52" y="55" width="2" height="2" fill="#1f2335"/><rect x="58" y="33" width="16" height="47" fill="#24283b"/><rect x="61" y="36" width="2" height="2" fill="#e0af68"><animate attributeName="opacity" values="1;0.25;1" dur="4.36s" begin="2.43s" repeatCount="indefinite"/></rect><rect x="66" y="36" width="2" height="2" fill="#e0af68"><animate attributeName="opacity" values="1;0.25;1" dur="4.03s" begin="2.04s" repeatCount="indefinite"/></rect><rect x="61" y="46" width="2" height="2" fill="#1f2335"/><rect x="71" y="46" width="2" height="2" fill="#e0af68"><animate attributeName="opacity" values="1;0.25;1" dur="4.42s" begin="0.59s" repeatCount="indefinite"/></rect><rect x="61" y="51" width="2" height="2" fill="#1f2335"/><rect x="66" y="51" width="2" height="2" fill="#1f2335"/><rect x="71" y="51" width="2" height="2" fill="#e0af68"><animate attributeName="opacity" values="1;0.25;1" dur="2.44s" begin="2.75s" repeatCount="indefinite"/></rect><rect x="74" y="37" width="10" height="43" fill="#24283b"/><rect x="77" y="40" width="2" height="2" fill="#1f2335"/><rect x="77" y="45" width="2" height="2" fill="#1f2335"/><rect x="84" y="40" width="18" height="40" fill="#2a2f45"/><rect x="92" y="53" width="2" height="2" fill="#e0af68"><animate attributeName="opacity" values="1;0.25;1" dur="2.74s" begin="2.55s" repeatCount="indefinite"/></rect><rect x="102" y="35" width="18" height="45" fill="#414868"/><rect x="105" y="38" width="2" height="2" fill="#e0af68"><animate attributeName="opacity" values="1;0.25;1" dur="4.14s" begin="0.94s" repeatCount="indefinite"/></rect><rect x="110" y="38" width="2" height="2" fill="#1f2335"/><rect x="115" y="38" width="2" height="2" fill="#e0af68"><animate attributeName="opacity" values="1;0.25;1" dur="2.64s" begin="1.66s" repeatCount="indefinite"/></rect><rect x="105" y="43" width="2" height="2" fill="#e0af68"><animate attributeName="opacity" values="1;0.25;1" dur="2.19s" begin="3.33s" repeatCount="indefinite"/></rect><rect x="110" y="43" width="2" height="2" fill="#1f2335"/><rect x="110" y="48" width="2" height="2" fill="#1f2335"/><rect x="120" y="43" width="18" height="37" fill="#2a2f45"/><rect x="123" y="46" width="2" height="2" fill="#e0af68"><animate attributeName="opacity" values="1;0.25;1" dur="2.09s" begin="1.34s" repeatCount="indefinite"/></rect><rect x="133" y="46" width="2" height="2" fill="#e0af68"><animate attributeName="opacity" values="1;0.25;1" dur="3.4s" begin="0.51s" repeatCount="indefinite"/></rect><rect x="128" y="51" width="2" height="2" fill="#e0af68"><animate attributeName="opacity" values="1;0.25;1" dur="3.69s" begin="0.11s" repeatCount="indefinite"/></rect><rect x="138" y="36" width="12" height="44" fill="#24283b"/><rect x="141" y="39" width="2" height="2" fill="#e0af68"><animate attributeName="opacity" values="1;0.25;1" dur="2.63s" begin="1.31s" repeatCount="indefinite"/></rect><rect x="141" y="44" width="2" height="2" fill="#1f2335"/><rect x="146" y="44" width="2" height="2" fill="#e0af68"><animate attributeName="opacity" values="1;0.25;1" dur="3.62s" begin="4.0s" repeatCount="indefinite"/></rect><rect x="141" y="49" width="2" height="2" fill="#1f2335"/><rect x="146" y="54" width="2" height="2" fill="#e0af68"><animate attributeName="opacity" values="1;0.25;1" dur="2.46s" begin="0.5s" repeatCount="indefinite"/></rect><rect x="150" y="32" width="10" height="48" fill="#24283b"/><rect x="153" y="35" width="2" height="2" fill="#e0af68"><animate attributeName="opacity" values="1;0.25;1" dur="3.11s" begin="2.42s" repeatCount="indefinite"/></rect><rect x="153" y="55" width="2" height="2" fill="#e0af68"><animate attributeName="opacity" values="1;0.25;1" dur="3.74s" begin="3.72s" repeatCount="indefinite"/></rect><rect x="160" y="29" width="18" height="51" fill="#2a2f45"/><rect x="163" y="32" width="2" height="2" fill="#1f2335"/><rect x="173" y="32" width="2" height="2" fill="#1f2335"/><rect x="163" y="37" width="2" height="2" fill="#1f2335"/><rect x="168" y="37" width="2" height="2" fill="#e0af68"><animate attributeName="opacity" values="1;0.25;1" dur="3.52s" begin="1.36s" repeatCount="indefinite"/></rect><rect x="168" y="42" width="2" height="2" fill="#1f2335"/><rect x="163" y="47" width="2" height="2" fill="#1f2335"/><rect x="163" y="52" width="2" height="2" fill="#e0af68"><animate attributeName="opacity" values="1;0.25;1" dur="4.19s" begin="1.07s" repeatCount="indefinite"/></rect><rect x="178" y="42" width="10" height="38" fill="#2a2f45"/><rect x="181" y="45" width="2" height="2" fill="#e0af68"><animate attributeName="opacity" values="1;0.25;1" dur="3.83s" begin="1.52s" repeatCount="indefinite"/></rect><rect x="181" y="50" width="2" height="2" fill="#1f2335"/><rect x="188" y="42" width="14" height="38" fill="#414868"/><rect x="196" y="45" width="2" height="2" fill="#e0af68"><animate attributeName="opacity" values="1;0.25;1" dur="4.84s" begin="0.34s" repeatCount="indefinite"/></rect><rect x="196" y="50" width="2" height="2" fill="#1f2335"/><rect x="191" y="55" width="2" height="2" fill="#1f2335"/><rect x="202" y="29" width="14" height="51" fill="#414868"/><rect x="205" y="32" width="2" height="2" fill="#e0af68"><animate attributeName="opacity" values="1;0.25;1" dur="3.03s" begin="3.99s" repeatCount="indefinite"/></rect><rect x="205" y="37" width="2" height="2" fill="#e0af68"><animate attributeName="opacity" values="1;0.25;1" dur="2.92s" begin="0.92s" repeatCount="indefinite"/></rect><rect x="205" y="42" width="2" height="2" fill="#1f2335"/><rect x="210" y="42" width="2" height="2" fill="#1f2335"/><rect x="216" y="43" width="14" height="37" fill="#2a2f45"/><rect x="219" y="46" width="2" height="2" fill="#e0af68"><animate attributeName="opacity" values="1;0.25;1" dur="3.6s" begin="1.1s" repeatCount="indefinite"/></rect><rect x="230" y="30" width="12" height="50" fill="#2a2f45"/><rect x="233" y="33" width="2" height="2" fill="#e0af68"><animate attributeName="opacity" values="1;0.25;1" dur="2.85s" begin="1.91s" repeatCount="indefinite"/></rect><rect x="238" y="33" width="2" height="2" fill="#1f2335"/><rect x="233" y="38" width="2" height="2" fill="#e0af68"><animate attributeName="opacity" values="1;0.25;1" dur="3.48s" begin="2.31s" repeatCount="indefinite"/></rect><rect x="233" y="43" width="2" height="2" fill="#1f2335"/><rect x="238" y="43" width="2" height="2" fill="#e0af68"><animate attributeName="opacity" values="1;0.25;1" dur="3.25s" begin="2.38s" repeatCount="indefinite"/></rect><rect x="233" y="53" width="2" height="2" fill="#1f2335"/><rect x="238" y="53" width="2" height="2" fill="#e0af68"><animate attributeName="opacity" values="1;0.25;1" dur="2.18s" begin="3.84s" repeatCount="indefinite"/></rect><rect x="242" y="44" width="10" height="36" fill="#414868"/><rect x="245" y="47" width="2" height="2" fill="#1f2335"/><rect x="245" y="52" width="2" height="2" fill="#e0af68"><animate attributeName="opacity" values="1;0.25;1" dur="3.35s" begin="2.38s" repeatCount="indefinite"/></rect><rect x="252" y="49" width="14" height="31" fill="#24283b"/><rect x="255" y="52" width="2" height="2" fill="#e0af68"><animate attributeName="opacity" values="1;0.25;1" dur="4.58s" begin="0.28s" repeatCount="indefinite"/></rect><rect x="260" y="52" width="2" height="2" fill="#e0af68"><animate attributeName="opacity" values="1;0.25;1" dur="4.37s" begin="2.36s" repeatCount="indefinite"/></rect><rect x="266" y="37" width="12" height="43" fill="#24283b"/><rect x="269" y="50" width="2" height="2" fill="#e0af68"><animate attributeName="opacity" values="1;0.25;1" dur="2.92s" begin="3.0s" repeatCount="indefinite"/></rect><rect x="269" y="55" width="2" height="2" fill="#e0af68"><animate attributeName="opacity" values="1;0.25;1" dur="4.07s" begin="2.8s" repeatCount="indefinite"/></rect><rect x="278" y="33" width="18" height="47" fill="#2a2f45"/><rect x="281" y="36" width="2" height="2" fill="#e0af68"><animate attributeName="opacity" values="1;0.25;1" dur="4.67s" begin="2.94s" repeatCount="indefinite"/></rect><rect x="291" y="36" width="2" height="2" fill="#e0af68"><animate attributeName="opacity" values="1;0.25;1" dur="4.02s" begin="3.44s" repeatCount="indefinite"/></rect><rect x="286" y="41" width="2" height="2" fill="#1f2335"/><rect x="281" y="46" width="2" height="2" fill="#e0af68"><animate attributeName="opacity" values="1;0.25;1" dur="3.33s" begin="1.11s" repeatCount="indefinite"/></rect><rect x="291" y="46" width="2" height="2" fill="#1f2335"/><rect x="281" y="51" width="2" height="2" fill="#e0af68"><animate attributeName="opacity" values="1;0.25;1" dur="2.31s" begin="0.64s" repeatCount="indefinite"/></rect><rect x="286" y="51" width="2" height="2" fill="#e0af68"><animate attributeName="opacity" values="1;0.25;1" dur="3.99s" begin="1.6s" repeatCount="indefinite"/></rect><rect x="296" y="36" width="10" height="44" fill="#24283b"/><rect x="299" y="39" width="2" height="2" fill="#e0af68"><animate attributeName="opacity" values="1;0.25;1" dur="4.91s" begin="1.62s" repeatCount="indefinite"/></rect><rect x="306" y="36" width="18" height="44" fill="#2a2f45"/><rect x="309" y="39" width="2" height="2" fill="#e0af68"><animate attributeName="opacity" values="1;0.25;1" dur="3.87s" begin="1.99s" repeatCount="indefinite"/></rect><rect x="314" y="39" width="2" height="2" fill="#e0af68"><animate attributeName="opacity" values="1;0.25;1" dur="2.8s" begin="0.52s" repeatCount="indefinite"/></rect><rect x="319" y="39" width="2" height="2" fill="#1f2335"/><rect x="309" y="49" width="2" height="2" fill="#e0af68"><animate attributeName="opacity" values="1;0.25;1" dur="3.22s" begin="0.9s" repeatCount="indefinite"/></rect><rect x="319" y="49" width="2" height="2" fill="#1f2335"/><rect x="314" y="54" width="2" height="2" fill="#1f2335"/><rect x="319" y="54" width="2" height="2" fill="#e0af68"><animate attributeName="opacity" values="1;0.25;1" dur="2.43s" begin="0.76s" repeatCount="indefinite"/></rect><g><rect x="0" y="0" width="3" height="1" fill="#ffffff"/><rect x="-3" y="0" width="3" height="1" fill="#7dcfff" opacity="0.5"/><animateTransform attributeName="transform" type="translate" values="-10,8; 120,40" dur="1.4s" begin="2s;8s;14s" repeatCount="1" fill="freeze"/><animate attributeName="opacity" values="0;1;1;0" dur="1.4s" begin="2s;8s;14s" repeatCount="1"/></g></svg>