<svg xmlns="http://www.w3.org/2000/svg" viewBox="0 0 320 8" width="100%" preserveAspectRatio="none" shape-rendering="crispEdges" role="img" aria-label="divider"><rect x="0" y="3" width="4" height="2" fill="#3b2a55"/><rect x="4" y="3" width="4" height="2" fill="#3b2a55"/><rect x="8" y="3" width="4" height="2" fill="#7a4a6b"/><rect x="12" y="3" width="4" height="2" fill="#bb9af7" opacity="0.5"><animate attributeName="opacity" values="0.5;0.25;0.5" dur="8.01s" begin="1.56s" repeatCount="indefinite"/></rect><rect x="16" y="3" width="4" height="2" fill="#3b2a55"/><rect x="20" y="3" width="4" height="2" fill="#5b3f7a"/><rect x="24" y="3" width="4" height="2" fill="#7a4a6b"/><rect x="28" y="3" width="4" height="2" fill="#7a4a6b"/><rect x="32" y="3" width="4" height="2" fill="#3b2a55"/><rect x="36" y="3" width="4" height="2" fill="#7a4a6b"/><rect x="40" y="3" width="4" height="2" fill="#3b2a55"/><rect x="44" y="3" width="4" height="2" fill="#9fe7ff" opacity="0.79"><animate attributeName="opacity" values="0.79;0.4;0.79" dur="5.63s" begin="4.68s" repeatCount="indefinite"/></rect><rect x="48" y="3" width="4" height="2" fill="#5b3f7a"/><rect x="52" y="3" width="4" height="2" fill="#5b3f7a"/><rect x="56" y="3" width="4" height="2" fill="#5b3f7a"/><rect x="60" y="3" width="4" height="2" fill="#7a4a6b"/><rect x="64" y="3" width="4" height="2" fill="#3b2a55"/><rect x="68" y="3" width="4" height="2" fill="#ffd479" opacity="0.65"><animate attributeName="opacity" values="0.65;0.33;0.65" dur="6.27s" begin="4.03s" repeatCount="indefinite"/></rect><rect x="72" y="3" width="4" height="2" fill="#5b3f7a"/><rect x="76" y="3" width="4" height="2" fill="#5b3f7a"/><rect x="80" y="3" width="4" height="2" fill="#7a4a6b"/><rect x="84" y="3" width="4" height="2" fill="#7a4a6b"/><rect x="88" y="3" width="4" height="2" fill="#5b3f7a"/><rect x="92" y="3" width="4" height="2" fill="#3b2a55"/><rect x="96" y="3" width="4" height="2" fill="#7a4a6b"/><rect x="100" y="3" width="4" height="2" fill="#3b2a55"/><rect x="104" y="3" width="4" height="2" fill="#5b3f7a"/><rect x="108" y="3" width="4" height="2" fill="#7a4a6b"/><rect x="112" y="3" width="4" height="2" fill="#7a4a6b"/><rect x="116" y="3" width="4" height="2" fill="#7a4a6b"/><rect x="120" y="3" width="4" height="2" fill="#7a4a6b"/><rect x="124" y="3" width="4" height="2" fill="#bb9af7" opacity="0.76"><animate attributeName="opacity" values="0.76;0.38;0.76" dur="8.47s" begin="0.53s" repeatCount="indefinite"/></rect><rect x="128" y="3" width="4" height="2" fill="#5b3f7a"/><rect x="132" y="3" width="4" height="2" fill="#3b2a55"/><rect x="136" y="3" width="4" height="2" fill="#5b3f7a"/><rect x="140" y="3" width="4" height="2" fill="#3b2a55"/><rect x="144" y="3" width="4" height="2" fill="#3b2a55"/><rect x="148" y="3" width="4" height="2" fill="#7a4a6b"/><rect x="152" y="3" width="4" height="2" fill="#5b3f7a"/><rect x="156" y="3" width="4" height="2" fill="#3b2a55"/><rect x="160" y="3" width="4" height="2" fill="#9fe7ff" opacity="0.66"><animate attributeName="opacity" values="0.66;0.33;0.66" dur="8.35s" begin="5.83s" repeatCount="indefinite"/></rect><rect x="164" y="3" width="4" height="2" fill="#7a4a6b"/><rect x="168" y="3" width="4" height="2" fill="#9fe7ff" opacity="0.76"><animate attributeName="opacity" values="0.76;0.38;0.76" dur="6.44s" begin="5.75s" repeatCount="indefinite"/></rect><rect x="172" y="3" width="4" height="2" fill="#5b3f7a"/><rect x="176" y="3" width="4" height="2" fill="#7a4a6b"/><rect x="180" y="3" width="4" height="2" fill="#7a4a6b"/><rect x="184" y="3" width="4" height="2" fill="#3b2a55"/><rect x="188" y="3" width="4" height="2" fill="#7a4a6b"/><rect x="192" y="3" width="4" height="2" fill="#7a4a6b"/><rect x="196" y="3" width="4" height="2" fill="#3b2a55"/><rect x="200" y="3" width="4" height="2" fill="#5b3f7a"/><rect x="204" y="3" width="4" height="2" fill="#7a4a6b"/><rect x="208" y="3" width="4" height="2" fill="#ffd479" opacity="0.62"><animate attributeName="opacity" values="0.62;0.31;0.62" dur="7.24s" begin="0.12s" repeatCount="indefinite"/></rect><rect x="212" y="3" width="4" height="2" fill="#7a4a6b"/><rect x="216" y="3" width="4" height="2" fill="#3b2a55"/><rect x="220" y="3" width="4" height="2" fill="#5b3f7a"/><rect x="224" y="3" width="4" height="2" fill="#7a4a6b"/><rect x="228" y="3" width="4" height="2" fill="#7a4a6b"/><rect x="232" y="3" width="4" height="2" fill="#7a4a6b"/><rect x="236" y="3" width="4" height="2" fill="#9fe7ff" opacity="0.7"><animate attributeName="opacity" values="0.7;0.35;0.7" dur="8.39s" begin="1.51s" repeatCount="indefinite"/></rect><rect x="240" y="3" width="4" height="2" fill="#5b3f7a"/><rect x="244" y="3" width="4" height="2" fill="#9fe7ff" opacity="0.56"><animate attributeName="opacity" values="0.56;0.28;0.56" dur="7.77s" begin="5.06s" repeatCount="indefinite"/></rect><rect x="248" y="3" width="4" height="2" fill="#5b3f7a"/><rect x="252" y="3" width="4" height="2" fill="#3b2a55"/><rect x="256" y="3" width="4" height="2" fill="#3b2a55"/><rect x="260" y="3" width="4" height="2" fill="#7a4a6b"/><rect x="264" y="3" width="4" height="2" fill="#5b3f7a"/><rect x="268" y="3" width="4" height="2" fill="#7a4a6b"/><rect x="272" y="3" width="4" height="2" fill="#3b2a55"/><rect x="276" y="3" width="4" height="2" fill="#7a4a6b"/><rect x="280" y="3" width="4" height="2" fill="#bb9af7" opacity="0.68"><animate attributeName="opacity" values="0.68;0.34;0.68" dur="8.35s" begin="4.05s" repeatCount="indefinite"/></rect><rect x="284" y="3" width="4" height="2" fill="#5b3f7a"/><rect x="288" y="3" width="4" height="2" fill="#9fe7ff" opacity="0.72"><animate attributeName="opacity" values="0.72;0.36;0.72" dur="6.15s" begin="3.41s" repeatCount="indefinite"/></rect><rect x="292" y="3" width="4" height="2" fill="#3b2a55"/><rect x="296" y="3" width="4" height="2" fill="#3b2a55"/><rect x="300" y="3" width="4" height="2" fill="#3b2a55"/><rect x="304" y="3" width="4" height="2" fill="#ffd479" opacity="0.58"><animate attributeName="opacity" values="0.58;0.29;0.58" dur="7.92s" begin="3.85s" repeatCount="indefinite"/></rect><rect x="308" y="3" width="4" height="2" fill="#5b3f7a"/><rect x="312" y="3" width="4" height="2" fill="#5b3f7a"/><rect x="316" y="3" width="4" height="2" fill="#5b3f7a"/></svg>