<svg xmlns="http://www.w3.org/2000/svg" viewBox="0 0 320 8" width="100%" preserveAspectRatio="none" shape-rendering="crispEdges" role="img" aria-label="divider"><rect x="0" y="3" width="4" height="2" fill="#7a4a6b"/><rect x="4" y="3" width="4" height="2" fill="#ffd479"/><rect x="8" y="3" width="4" height="2" fill="#7a4a6b"/><rect x="12" y="3" width="4" height="2" fill="#bb9af7"/><rect x="16" y="3" width="4" height="2" fill="#5b3f7a"/><rect x="20" y="3" width="4" height="2" fill="#3b2a55"/><rect x="24" y="3" width="4" height="2" fill="#7a4a6b"/><rect x="28" y="3" width="4" height="2" fill="#7a4a6b"/><rect x="32" y="3" width="4" height="2" fill="#7a4a6b"/><rect x="36" y="3" width="4" height="2" fill="#3b2a55"/><rect x="40" y="3" width="4" height="2" fill="#7a4a6b"/><rect x="44" y="3" width="4" height="2" fill="#3b2a55"/><rect x="48" y="3" width="4" height="2" fill="#3b2a55"/><rect x="52" y="3" width="4" height="2" fill="#ffd479"/><rect x="56" y="3" width="4" height="2" fill="#bb9af7"/><rect x="60" y="3" width="4" height="2" fill="#5b3f7a"/><rect x="64" y="3" width="4" height="2" fill="#7a4a6b"/><rect x="68" y="3" width="4" height="2" fill="#5b3f7a"/><rect x="72" y="3" width="4" height="2" fill="#5b3f7a"/><rect x="76" y="3" width="4" height="2" fill="#7a4a6b"/><rect x="80" y="3" width="4" height="2" fill="#3b2a55"/><rect x="84" y="3" width="4" height="2" fill="#3b2a55"/><rect x="88" y="3" width="4" height="2" fill="#9fe7ff"/><rect x="92" y="3" width="4" height="2" fill="#7a4a6b"/><rect x="96" y="3" width="4" height="2" fill="#7a4a6b"/><rect x="100" y="3" width="4" height="2" fill="#5b3f7a"/><rect x="104" y="3" width="4" height="2" fill="#5b3f7a"/><rect x="108" y="3" width="4" height="2" fill="#7a4a6b"/><rect x="112" y="3" width="4" height="2" fill="#7a4a6b"/><rect x="116" y="3" width="4" height="2" fill="#5b3f7a"/><rect x="120" y="3" width="4" height="2" fill="#3b2a55"/><rect x="124" y="3" width="4" height="2" fill="#7a4a6b"/><rect x="128" y="3" width="4" height="2" fill="#3b2a55"/><rect x="132" y="3" width="4" height="2" fill="#5b3f7a"/><rect x="136" y="3" width="4" height="2" fill="#7a4a6b"/><rect x="140" y="3" width="4" height="2" fill="#7a4a6b"/><rect x="144" y="3" width="4" height="2" fill="#7a4a6b"/><rect x="148" y="3" width="4" height="2" fill="#7a4a6b"/><rect x="152" y="3" width="4" height="2" fill="#3b2a55"/><rect x="156" y="3" width="4" height="2" fill="#ffd479"/><rect x="160" y="3" width="4" height="2" fill="#3b2a55"/><rect x="164" y="3" width="4" height="2" fill="#3b2a55"/><rect x="168" y="3" width="4" height="2" fill="#3b2a55"/><rect x="172" y="3" width="4" height="2" fill="#9fe7ff"/><rect x="176" y="3" width="4" height="2" fill="#3b2a55"/><rect x="180" y="3" width="4" height="2" fill="#ffd479"/><rect x="184" y="3" width="4" height="2" fill="#5b3f7a"/><rect x="188" y="3" width="4" height="2" fill="#5b3f7a"/><rect x="192" y="3" width="4" height="2" fill="#5b3f7a"/><rect x="196" y="3" width="4" height="2" fill="#3b2a55"/><rect x="200" y="3" width="4" height="2" fill="#3b2a55"/><rect x="204" y="3" width="4" height="2" fill="#ffd479"/><rect x="208" y="3" width="4" height="2" fill="#bb9af7"/><rect x="212" y="3" width="4" height="2" fill="#5b3f7a"/><rect x="216" y="3" width="4" height="2" fill="#3b2a55"/><rect x="220" y="3" width="4" height="2" fill="#5b3f7a"/><rect x="224" y="3" width="4" height="2" fill="#3b2a55"/><rect x="228" y="3" width="4" height="2" fill="#5b3f7a"/><rect x="232" y="3" width="4" height="2" fill="#7a4a6b"/><rect x="236" y="3" width="4" height="2" fill="#7a4a6b"/><rect x="240" y="3" width="4" height="2" fill="#3b2a55"/><rect x="244" y="3" width="4" height="2" fill="#7a4a6b"/><rect x="248" y="3" width="4" height="2" fill="#7a4a6b"/><rect x="252" y="3" width="4" height="2" fill="#3b2a55"/><rect x="256" y="3" width="4" height="2" fill="#5b3f7a"/><rect x="260" y="3" width="4" height="2" fill="#7a4a6b"/><rect x="264" y="3" width="4" height="2" fill="#5b3f7a"/><rect x="268" y="3" width="4" height="2" fill="#9fe7ff"/><rect x="272" y="3" width="4" height="2" fill="#5b3f7a"/><rect x="276" y="3" width="4" height="2" fill="#ffd479"/><rect x="280" y="3" width="4" height="2" fill="#3b2a55"/><rect x="284" y="3" width="4" height="2" fill="#ffd479"/><rect x="288" y="3" width="4" height="2" fill="#5b3f7a"/><rect x="292" y="3" width="4" height="2" fill="#5b3f7a"/><rect x="296" y="3" width="4" height="2" fill="#5b3f7a"/><rect x="300" y="3" width="4" height="2" fill="#3b2a55"/><rect x="304" y="3" width="4" height="2" fill="#7a4a6b"/><rect x="308" y="3" width="4" height="2" fill="#9fe7ff"/><rect x="312" y="3" width="4" height="2" fill="#5b3f7a"/><rect x="316" y="3" width="4" height="2" fill="#7a4a6b"/></svg>